<svg width="25" height="26" viewBox="0 0 25 26" fill="none" xmlns="http://www.w3.org/2000/svg">
<g clip-path="url(#clip0_26_27)">
<path d="M23.3106 10.5058L6.13384 4.13378L6.10943 4.12499C5.76309 4.00516 5.39002 3.9852 5.03287 4.06737C4.67572 4.14955 4.3489 4.33055 4.08976 4.5897C3.83062 4.84884 3.64961 5.17566 3.56744 5.53281C3.48526 5.88996 3.50522 6.26303 3.62505 6.60936L3.63384 6.63378L10.0059 23.8105C10.141 24.1905 10.3904 24.5193 10.7198 24.7518C11.0492 24.9844 11.4425 25.1093 11.8458 25.1094H11.8799C12.2918 25.1022 12.691 24.965 13.0202 24.7173C13.3494 24.4697 13.5919 24.1242 13.7129 23.7305L13.7217 23.7021L15.795 16.2949L23.2022 14.2217L23.2305 14.2129C23.6243 14.0931 23.9701 13.852 24.2187 13.524C24.4673 13.196 24.6059 12.7979 24.6148 12.3864C24.6237 11.975 24.5024 11.5712 24.2682 11.2328C24.0339 10.8944 23.6988 10.6386 23.3106 10.5019V10.5058ZM14.5284 14.2168C14.3346 14.2711 14.158 14.3743 14.0157 14.5166C13.8734 14.6589 13.7701 14.8355 13.7159 15.0293L11.794 21.8935L6.13286 6.6328L21.3926 12.2969L14.5284 14.2168Z" fill="#B1997B"/>
</g>
<defs>
<clipPath id="clip0_26_27">
<rect width="25" height="25" fill="white" transform="translate(0 0.5)"/>
</clipPath>
</defs>
</svg>
