<svg width="20" height="21" viewBox="0 0 20 21" fill="none" xmlns="http://www.w3.org/2000/svg">
<path d="M17.5 3.9375H2.5C2.25136 3.9375 2.0129 4.03627 1.83709 4.21209C1.66127 4.3879 1.5625 4.62636 1.5625 4.875V15.5C1.5625 15.9144 1.72712 16.3118 2.02015 16.6049C2.31317 16.8979 2.7106 17.0625 3.125 17.0625H16.875C17.2894 17.0625 17.6868 16.8979 17.9799 16.6049C18.2729 16.3118 18.4375 15.9144 18.4375 15.5V4.875C18.4375 4.62636 18.3387 4.3879 18.1629 4.21209C17.9871 4.03627 17.7486 3.9375 17.5 3.9375ZM15.0898 5.8125L10 10.4781L4.91016 5.8125H15.0898ZM3.4375 15.1875V7.00625L9.36641 12.4414C9.53932 12.6 9.7654 12.6879 10 12.6879C10.2346 12.6879 10.4607 12.6 10.6336 12.4414L16.5625 7.00625V15.1875H3.4375Z" fill="#B1997B"/>
</svg>
