<svg width="60" height="60" viewBox="0 0 60 60" fill="none" xmlns="http://www.w3.org/2000/svg">
<g clip-path="url(#clip0_38_14)">
<path d="M27.3488 5.62499C28.052 4.92197 29.0057 4.52704 30 4.52704C30.9944 4.52704 31.9481 4.92197 32.6513 5.62499L41.25 14.2237V9.37499C41.25 8.87771 41.4476 8.40079 41.7992 8.04916C42.1509 7.69753 42.6278 7.49999 43.125 7.49999H46.875C47.3723 7.49999 47.8492 7.69753 48.2009 8.04916C48.5525 8.40079 48.75 8.87771 48.75 9.37499V21.7237L57.5775 30.5475C57.7519 30.7218 57.8902 30.9288 57.9845 31.1565C58.0789 31.3843 58.1274 31.6284 58.1274 31.875C58.1274 32.1215 58.0789 32.3657 57.9845 32.5934C57.8902 32.8212 57.7519 33.0282 57.5775 33.2025C57.4032 33.3768 57.1963 33.5151 56.9685 33.6095C56.7407 33.7038 56.4966 33.7524 56.25 33.7524C56.0035 33.7524 55.7594 33.7038 55.5316 33.6095C55.3038 33.5151 55.0969 33.3768 54.9225 33.2025L30 8.27624L11.25 27.0262V50.625C11.25 51.1223 11.4476 51.5992 11.7992 51.9508C12.1509 52.3024 12.6278 52.5 13.125 52.5H28.125C28.6223 52.5 29.0992 52.6975 29.4509 53.0492C29.8025 53.4008 30 53.8777 30 54.375C30 54.8723 29.8025 55.3492 29.4509 55.7008C29.0992 56.0524 28.6223 56.25 28.125 56.25H13.125C11.6332 56.25 10.2025 55.6574 9.14757 54.6025C8.09268 53.5476 7.50005 52.1168 7.50005 50.625V30.7762L5.07755 33.2025C4.90322 33.3768 4.69626 33.5151 4.46849 33.6095C4.24071 33.7038 3.99659 33.7524 3.75005 33.7524C3.50351 33.7524 3.25938 33.7038 3.03161 33.6095C2.80384 33.5151 2.59688 33.3768 2.42255 33.2025C2.24822 33.0282 2.10993 32.8212 2.01559 32.5934C1.92124 32.3657 1.87268 32.1215 1.87268 31.875C1.87268 31.6284 1.92124 31.3843 2.01559 31.1565C2.10993 30.9288 2.24822 30.7218 2.42255 30.5475L27.3488 5.62499Z" fill="#B1997B"/>
<path d="M46.875 60C50.356 60 53.6944 58.6172 56.1558 56.1558C58.6172 53.6944 60 50.356 60 46.875C60 43.394 58.6172 40.0556 56.1558 37.5942C53.6944 35.1328 50.356 33.75 46.875 33.75C43.394 33.75 40.0556 35.1328 37.5942 37.5942C35.1328 40.0556 33.75 43.394 33.75 46.875C33.75 50.356 35.1328 53.6944 37.5942 56.1558C40.0556 58.6172 43.394 60 46.875 60ZM53.1712 43.1512L48.165 51.4987C47.945 51.8655 47.6443 52.1772 47.2857 52.4102C46.9271 52.6433 46.5201 52.7915 46.0956 52.8435C45.6711 52.8956 45.2403 52.8502 44.8361 52.7107C44.4318 52.5713 44.0646 52.3414 43.7625 52.0387L40.86 49.14C40.5084 48.7879 40.3111 48.3106 40.3115 47.8131C40.3118 47.3155 40.5098 46.8385 40.8619 46.4869C41.2139 46.1353 41.6913 45.938 42.1888 45.9383C42.6864 45.9387 43.1634 46.1367 43.515 46.4888L45.5662 48.54L49.9538 41.2238C50.0803 41.0125 50.2472 40.8282 50.445 40.6815C50.6428 40.5347 50.8675 40.4284 51.1064 40.3685C51.3453 40.3086 51.5936 40.2963 51.8372 40.3324C52.0809 40.3685 52.315 40.4522 52.5262 40.5788C52.7375 40.7053 52.9218 40.8722 53.0685 41.07C53.2153 41.2678 53.3216 41.4925 53.3815 41.7314C53.4414 41.9703 53.4537 42.2186 53.4176 42.4622C53.3815 42.7059 53.2978 42.94 53.1712 43.1512Z" fill="#B1997B"/>
</g>
<defs>
<clipPath id="clip0_38_14">
<rect width="60" height="60" fill="white"/>
</clipPath>
</defs>
</svg>
