<svg width="23" height="23" viewBox="0 0 23 23" fill="none" xmlns="http://www.w3.org/2000/svg">
<path d="M19.6094 14.1105L15.3786 12.2139L15.3625 12.2068C15.0875 12.0882 14.7871 12.0405 14.4889 12.0679C14.1907 12.0954 13.9042 12.1972 13.6554 12.364C13.6206 12.3873 13.587 12.4125 13.5548 12.4394L11.5504 14.1465C10.3824 13.5131 9.17583 12.3164 8.54153 11.1628L10.254 9.12691C10.2815 9.09405 10.307 9.05955 10.3303 9.02359C10.4927 8.77576 10.5913 8.49161 10.6174 8.19644C10.6434 7.90128 10.596 7.60426 10.4795 7.33183C10.4767 7.32661 10.4743 7.32121 10.4723 7.31566L8.57657 3.07773C8.42096 2.72332 8.15539 2.42842 7.81915 2.23668C7.48291 2.04493 7.09387 1.96653 6.70962 2.01308C5.40542 2.18441 4.20818 2.82462 3.3415 3.81414C2.47482 4.80366 1.99797 6.07483 2.00001 7.39023C2.00001 14.7224 7.96473 20.6871 15.2969 20.6871C16.6123 20.6891 17.8834 20.2123 18.873 19.3456C19.8625 18.4789 20.5027 17.2817 20.674 15.9775C20.7206 15.5932 20.6422 15.2042 20.4504 14.868C20.2587 14.5317 19.9638 14.2661 19.6094 14.1105ZM15.2969 18.5309C12.3433 18.5273 9.51171 17.3524 7.42321 15.2639C5.33471 13.1754 4.15982 10.3438 4.15626 7.39023C4.1542 6.64587 4.4069 5.92321 4.87238 5.34235C5.33786 4.76148 5.98808 4.35738 6.71501 4.19718L8.40587 7.97062L6.68446 10.0209C6.65664 10.054 6.63083 10.0888 6.60719 10.1251C6.43752 10.3843 6.33777 10.683 6.31762 10.9922C6.29747 11.3014 6.35761 11.6105 6.49219 11.8896C7.33852 13.6218 9.08239 15.354 10.8325 16.2021C11.1135 16.3353 11.4242 16.3933 11.7343 16.3705C12.0443 16.3476 12.3432 16.2447 12.6016 16.0718C12.6363 16.0484 12.6696 16.0229 12.7013 15.9955L14.7165 14.2821L18.4899 15.9721C18.3297 16.699 17.9256 17.3492 17.3448 17.8147C16.7639 18.2802 16.0412 18.5329 15.2969 18.5309Z" fill="#B4814A"/>
</svg>
