<svg width="19" height="20" viewBox="0 0 19 20" fill="none" xmlns="http://www.w3.org/2000/svg">
<path d="M17.6094 12.767L13.3786 10.8704L13.3625 10.8632C13.0875 10.7446 12.7871 10.6969 12.4889 10.7244C12.1907 10.7518 11.9042 10.8536 11.6554 11.0204C11.6206 11.0438 11.587 11.0689 11.5548 11.0959L9.5504 12.8029C8.38243 12.1695 7.17583 10.9728 6.54153 9.8192L8.25395 7.78334C8.28148 7.75048 8.30698 7.71598 8.33032 7.68002C8.49274 7.43219 8.59135 7.14804 8.61737 6.85288C8.64339 6.55771 8.59601 6.26069 8.47946 5.98826C8.47669 5.98305 8.47429 5.97764 8.47227 5.97209L6.57657 1.73416C6.42096 1.37975 6.15539 1.08485 5.81915 0.893109C5.48291 0.701365 5.09387 0.622967 4.70962 0.669515C3.40542 0.840841 2.20818 1.48105 1.3415 2.47057C0.474818 3.46009 -0.00203191 4.73126 6.50834e-06 6.04666C6.50834e-06 13.3788 5.96473 19.3435 13.2969 19.3435C14.6123 19.3456 15.8834 18.8687 16.873 18.002C17.8625 17.1354 18.5027 15.9381 18.674 14.6339C18.7206 14.2497 18.6422 13.8606 18.4504 13.5244C18.2587 13.1882 17.9638 12.9226 17.6094 12.767ZM13.2969 17.1873C10.3433 17.1837 7.51171 16.0088 5.42321 13.9203C3.33471 11.8318 2.15982 9.00025 2.15626 6.04666C2.1542 5.3023 2.4069 4.57965 2.87238 3.99878C3.33786 3.41791 3.98808 3.01381 4.71501 2.85362L6.40587 6.62705L4.68446 8.67729C4.65664 8.71045 4.63083 8.74525 4.60719 8.78151C4.43752 9.04075 4.33777 9.33947 4.31762 9.64865C4.29747 9.95783 4.35761 10.267 4.49219 10.546C5.33852 12.2782 7.08239 14.0104 8.83254 14.8585C9.11349 14.9917 9.42418 15.0497 9.73425 15.0269C10.0443 15.0041 10.3432 14.9012 10.6016 14.7283C10.6363 14.7048 10.6696 14.6793 10.7013 14.6519L12.7165 12.9386L16.4899 14.6285C16.3297 15.3555 15.9256 16.0057 15.3448 16.4712C14.7639 16.9366 14.0412 17.1893 13.2969 17.1873Z" fill="#B1997B"/>
</svg>
